<?xml version="1.0" ?><svg id="Capa_1" style="enable-background:new 0 0 200 200;" version="1.1" viewBox="0 0 200 200" xml:space="preserve" xmlns="http://www.w3.org/2000/svg" xmlns:xlink="http://www.w3.org/1999/xlink"><g><g><path d="M137.8,163.5H38.7c-1.6,0-3-1.3-3-3V26.8c0-1.6,1.3-3,3-3h99.1c1.6,0,3,1.3,3,3v133.8    C140.8,162.2,139.5,163.5,137.8,163.5z M41.7,157.6h93.2V29.7H41.7V157.6z"/><path d="M75.7,38.5H47.4c-0.8,0-1.5-0.7-1.5-1.5s0.7-1.5,1.5-1.5h28.3c0.8,0,1.5,0.7,1.5,1.5S76.6,38.5,75.7,38.5z"/><path d="M66.9,43.4H47.4c-0.8,0-1.5-0.7-1.5-1.5s0.7-1.5,1.5-1.5h19.5c0.8,0,1.5,0.7,1.5,1.5S67.7,43.4,66.9,43.4z"/><path d="M93.9,48.4H47.4c-0.8,0-1.5-0.7-1.5-1.5s0.7-1.5,1.5-1.5h46.5c0.8,0,1.5,0.7,1.5,1.5S94.8,48.4,93.9,48.4z"/><path d="M124.6,72h-63c-0.8,0-1.5-0.7-1.5-1.5s0.7-1.5,1.5-1.5h63c0.8,0,1.5,0.7,1.5,1.5S125.4,72,124.6,72z"/><path d="M53,72h-2c-0.8,0-1.5-0.7-1.5-1.5S50.2,69,51,69h2c0.8,0,1.5,0.7,1.5,1.5S53.8,72,53,72z"/><path d="M124.6,79.6h-63c-0.8,0-1.5-0.7-1.5-1.5s0.7-1.5,1.5-1.5h63c0.8,0,1.5,0.7,1.5,1.5C126,79,125.4,79.6,124.6,79.6z"/><path d="M53,79.6h-2c-0.8,0-1.5-0.7-1.5-1.5s0.7-1.5,1.5-1.5h2c0.8,0,1.5,0.7,1.5,1.5C54.5,79,53.8,79.6,53,79.6z"/><path d="M124.6,87.3h-63c-0.8,0-1.5-0.7-1.5-1.5s0.7-1.5,1.5-1.5h63c0.8,0,1.5,0.7,1.5,1.5S125.4,87.3,124.6,87.3z"/><path d="M53,87.3h-2c-0.8,0-1.5-0.7-1.5-1.5s0.7-1.5,1.5-1.5h2c0.8,0,1.5,0.7,1.5,1.5S53.8,87.3,53,87.3z"/><path d="M124.6,94.9h-63c-0.8,0-1.5-0.7-1.5-1.5s0.7-1.5,1.5-1.5h63c0.8,0,1.5,0.7,1.5,1.5C126,94.2,125.4,94.9,124.6,94.9z"/><path d="M53,94.9h-2c-0.8,0-1.5-0.7-1.5-1.5s0.7-1.5,1.5-1.5h2c0.8,0,1.5,0.7,1.5,1.5C54.5,94.2,53.8,94.9,53,94.9z"/><path d="M124.6,102.5h-63c-0.8,0-1.5-0.7-1.5-1.5s0.7-1.5,1.5-1.5h63c0.8,0,1.5,0.7,1.5,1.5S125.4,102.5,124.6,102.5z"/><path d="M53,102.5h-2c-0.8,0-1.5-0.7-1.5-1.5s0.7-1.5,1.5-1.5h2c0.8,0,1.5,0.7,1.5,1.5S53.8,102.5,53,102.5z"/><path d="M124.6,110.2h-63c-0.8,0-1.5-0.7-1.5-1.5s0.7-1.5,1.5-1.5h63c0.8,0,1.5,0.7,1.5,1.5S125.4,110.2,124.6,110.2z"/><path d="M53,110.2h-2c-0.8,0-1.5-0.7-1.5-1.5s0.7-1.5,1.5-1.5h2c0.8,0,1.5,0.7,1.5,1.5S53.8,110.2,53,110.2z"/><path d="M124.6,117.8h-63c-0.8,0-1.5-0.7-1.5-1.5s0.7-1.5,1.5-1.5h63c0.8,0,1.5,0.7,1.5,1.5S125.4,117.8,124.6,117.8z"/><path d="M53,117.8h-2c-0.8,0-1.5-0.7-1.5-1.5s0.7-1.5,1.5-1.5h2c0.8,0,1.5,0.7,1.5,1.5S53.8,117.8,53,117.8z"/></g><g><path d="M159.7,132.6c-2.7,0-4.8-2.2-4.8-4.8V70.7c0-0.8,0.7-1.5,1.5-1.5h6.7c0.8,0,1.5,0.7,1.5,1.5v57.1    C164.5,130.4,162.3,132.6,159.7,132.6z M157.8,72.2v55.6c0,1,0.8,1.9,1.9,1.9c1,0,1.9-0.8,1.9-1.9V72.2H157.8z"/><path d="M163,71.9h-6.7c-0.8,0-1.5-0.7-1.5-1.5V56c0-2.7,2.2-4.8,4.8-4.8c2.7,0,4.8,2.2,4.8,4.8v14.3    C164.5,71.2,163.8,71.9,163,71.9z M157.8,68.9h3.7V56c0-1-0.8-1.9-1.9-1.9c-1,0-1.9,0.8-1.9,1.9L157.8,68.9L157.8,68.9z"/><path d="M151.4,98.3c-0.8,0-1.5-0.7-1.5-1.5V70.4c0-0.8,0.7-1.5,1.5-1.5h7.1c0.8,0,1.5,0.7,1.5,1.5s-0.7,1.5-1.5,1.5h-5.7v25    C152.8,97.6,152.2,98.3,151.4,98.3z"/><path d="M159.7,136.1c-0.8,0-1.5-0.7-1.5-1.5v-3.5c0-0.8,0.7-1.5,1.5-1.5s1.5,0.7,1.5,1.5v3.5    C161.1,135.5,160.5,136.1,159.7,136.1z"/></g></g></svg>